<svg width="39" height="39" viewBox="0 0 39 39" fill="none" xmlns="http://www.w3.org/2000/svg">
<circle cx="19.5" cy="19.5" r="19.5" fill="black" fill-opacity="0.2"/>
<path d="M21.8782 19.9989L27.606 14.2836C27.8568 14.0327 27.9977 13.6925 27.9977 13.3377C27.9977 12.9829 27.8568 12.6427 27.606 12.3918C27.3552 12.1409 27.015 12 26.6602 12C26.3055 12 25.9653 12.1409 25.7145 12.3918L20 18.1204L14.2855 12.3918C14.0347 12.1409 13.6945 12 13.3398 12C12.985 12 12.6448 12.1409 12.394 12.3918C12.1432 12.6427 12.0023 12.9829 12.0023 13.3377C12.0023 13.6925 12.1432 14.0327 12.394 14.2836L18.1218 19.9989L12.394 25.7142C12.2692 25.838 12.1701 25.9853 12.1024 26.1477C12.0348 26.31 12 26.4842 12 26.66C12 26.8359 12.0348 27.01 12.1024 27.1724C12.1701 27.3347 12.2692 27.4821 12.394 27.6059C12.5178 27.7308 12.6652 27.8299 12.8275 27.8975C12.9898 27.9652 13.1639 28 13.3398 28C13.5156 28 13.6897 27.9652 13.852 27.8975C14.0144 27.8299 14.1617 27.7308 14.2855 27.6059L20 21.8773L25.7145 27.6059C25.8383 27.7308 25.9856 27.8299 26.148 27.8975C26.3103 27.9652 26.4844 28 26.6602 28C26.8361 28 27.0102 27.9652 27.1725 27.8975C27.3348 27.8299 27.4822 27.7308 27.606 27.6059C27.7308 27.4821 27.8299 27.3347 27.8976 27.1724C27.9652 27.01 28 26.8359 28 26.66C28 26.4842 27.9652 26.31 27.8976 26.1477C27.8299 25.9853 27.7308 25.838 27.606 25.7142L21.8782 19.9989Z" fill="white" fill-opacity="0.6"/>
</svg>
