<svg width="12" height="11" viewBox="0 0 12 11" fill="none" xmlns="http://www.w3.org/2000/svg">
<path fill-rule="evenodd" clip-rule="evenodd" d="M0.5 5.5C0.5 4.04131 1.07946 2.64236 2.11091 1.61091C3.14236 0.579463 4.54131 0 6 0C7.45869 0 8.85764 0.579463 9.88909 1.61091C10.9205 2.64236 11.5 4.04131 11.5 5.5C11.5 6.95869 10.9205 8.35764 9.88909 9.38909C8.85764 10.4205 7.45869 11 6 11C4.54131 11 3.14236 10.4205 2.11091 9.38909C1.07946 8.35764 0.5 6.95869 0.5 5.5ZM5.68613 7.854L8.85267 3.89547L8.28067 3.43787L5.58053 6.81193L3.668 5.2184L3.19867 5.7816L5.68613 7.854Z" fill="#1C6DC9"/>
</svg>
