<svg width="35" height="35" viewBox="0 0 35 35" fill="none" xmlns="http://www.w3.org/2000/svg">
<path d="M11.3082 13.3059C11.5055 13.11 11.7732 13 12.0523 13C12.3314 13 12.599 13.11 12.7964 13.3059L18.0064 18.4779L23.2163 13.3059C23.4148 13.1156 23.6807 13.0103 23.9566 13.0127C24.2326 13.015 24.4966 13.1249 24.6917 13.3186C24.8869 13.5124 24.9976 13.7744 25 14.0484C25.0024 14.3223 24.8963 14.5863 24.7045 14.7833L18.7505 20.6941C18.5531 20.89 18.2854 21 18.0064 21C17.7273 21 17.4596 20.89 17.2622 20.6941L11.3082 14.7833C11.1108 14.5874 11 14.3217 11 14.0446C11 13.7676 11.1108 13.5019 11.3082 13.3059Z" fill="#677079"/>
</svg>
