<svg width="117" height="60" viewBox="0 0 117 60" fill="none" xmlns="http://www.w3.org/2000/svg">
<path d="M1.24 38.008C1 38.008 0.88 37.872 0.88 37.6C0.88 37.456 0.928 37.224 1.024 36.904C1.136 36.584 1.248 36.264 1.36 35.944C1.488 35.624 1.584 35.392 1.648 35.248C1.776 34.912 2 34.384 2.32 33.664C2.64 32.928 3.008 32.088 3.424 31.144C3.84 30.2 4.272 29.232 4.72 28.24C5.168 27.232 5.592 26.288 5.992 25.408C6.408 24.528 6.768 23.8 7.072 23.224V23.056C7.072 22.736 7.248 22.576 7.6 22.576C7.84 22.576 8.048 22.664 8.224 22.84C8.256 22.872 8.272 22.944 8.272 23.056C8.272 23.168 8.272 23.24 8.272 23.272C8.272 23.432 8.264 23.592 8.248 23.752C8.232 23.896 8.216 24.04 8.2 24.184C8.12 25.112 8.048 26.016 7.984 26.896C7.936 27.76 7.912 28.576 7.912 29.344C7.912 30.96 8.04 32.28 8.296 33.304C8.568 34.312 9 34.816 9.592 34.816C9.88 34.816 10.208 34.64 10.576 34.288C10.96 33.92 11.352 33.44 11.752 32.848C12.168 32.24 12.584 31.592 13 30.904C13.416 30.2 13.8 29.504 14.152 28.816C14.52 28.128 14.832 27.512 15.088 26.968C15.36 26.408 15.56 25.984 15.688 25.696L16.36 24.184C16.6 23.64 16.768 23.232 16.864 22.96C16.96 22.672 17.072 22.472 17.2 22.36C17.328 22.248 17.56 22.192 17.896 22.192H17.992C18.104 22.192 18.208 22.208 18.304 22.24C18.4 22.256 18.432 22.32 18.4 22.432C18.064 23.328 17.768 24.328 17.512 25.432C17.272 26.52 17.08 27.64 16.936 28.792C16.808 29.944 16.744 31.072 16.744 32.176C16.744 33.008 16.784 33.808 16.864 34.576C16.96 35.344 17.104 36.032 17.296 36.64C17.312 36.688 17.32 36.752 17.32 36.832C17.32 36.992 17.256 37.104 17.128 37.168C17.016 37.232 16.896 37.264 16.768 37.264C16.624 37.264 16.48 37.16 16.336 36.952C16.192 36.744 16.08 36.44 16 36.04C15.936 35.736 15.88 35.248 15.832 34.576C15.784 33.904 15.76 33.064 15.76 32.056C15.76 30.008 15.968 27.984 16.384 25.984C15.744 27.28 15.096 28.52 14.44 29.704C13.784 30.888 13.136 31.936 12.496 32.848C11.872 33.76 11.264 34.48 10.672 35.008C10.096 35.536 9.544 35.8 9.016 35.8C8.504 35.8 8.088 35.472 7.768 34.816C7.464 34.16 7.24 33.296 7.096 32.224C6.952 31.152 6.88 30 6.88 28.768C6.88 28.032 6.904 27.288 6.952 26.536C7 25.784 7.064 25.064 7.144 24.376C6.984 24.76 6.728 25.352 6.376 26.152C6.04 26.952 5.648 27.864 5.2 28.888C4.768 29.912 4.32 30.968 3.856 32.056C3.408 33.144 2.992 34.176 2.608 35.152C2.224 36.112 1.92 36.936 1.696 37.624C1.632 37.88 1.48 38.008 1.24 38.008Z" fill="black"/>
<path d="M63.1758 24.1268L43.3768 43.9258C43.3768 43.9258 41.9626 45.34 43.0234 46.4009C44.0842 47.4617 45.4983 46.0473 45.4983 46.0473L65.2973 26.2483C67.065 24.4805 68.6659 24.127 70.247 24.127C72.3683 24.127 72.9576 23.5377 73.429 23.0663L74.1361 22.3592L78.7323 17.763C78.7323 17.763 80.0569 16.2592 79.4394 15.6417C78.8219 15.0242 77.3181 16.3488 77.3181 16.3488L72.7219 20.945C72.7219 20.945 71.3077 22.3592 70.6006 21.6521C69.8934 20.945 71.3077 19.5308 71.3077 19.5308L75.9039 14.9346C75.9039 14.9346 77.2284 13.4308 76.611 12.8133C75.9935 12.1958 74.4896 13.5204 74.4896 13.5204L69.8934 18.1166C69.8934 18.1166 68.4792 19.5308 67.7721 18.8237C67.065 18.1166 68.4792 16.7024 68.4792 16.7024L73.0754 12.1062C73.0754 12.1062 74.3999 10.6023 73.7825 9.98479C73.165 9.36728 71.661 10.6918 71.661 10.6918L66.3579 15.9953C66.3579 15.9953 65.2973 17.0559 65.2971 19.1771C65.2969 21.2982 64.9435 22.359 63.1758 24.1268Z" fill="black"/>
<path d="M54.5201 26.6808L74.3187 46.4794C74.3187 46.4794 75.7333 47.894 76.794 46.8333C77.8546 45.7727 76.4404 44.3585 76.4404 44.3585L56.6414 24.5595C55.2269 23.1449 54.5198 22.4378 54.5198 19.6094C54.5198 16.781 53.8126 16.0738 52.3984 14.6596C50.9842 13.2454 49.57 12.5383 47.8022 12.1848C46.0345 11.8312 44.2667 12.1848 43.206 13.2454C42.1454 14.3061 41.7918 16.0738 42.1454 17.8416C42.4989 19.6094 43.206 21.0236 44.6203 22.4378C46.0345 23.852 46.7423 24.5598 49.5703 24.5595C52.3984 24.5591 53.1055 25.2662 54.5201 26.6808Z" fill="black"/>
<path d="M101.616 38.776C101.344 38.776 101.112 38.648 100.92 38.392C100.728 38.152 100.576 37.872 100.464 37.552C100.368 37.232 100.304 36.968 100.272 36.76C100.224 36.296 100.2 35.824 100.2 35.344C100.2 34.496 100.28 33.552 100.44 32.512C100.616 31.456 100.848 30.384 101.136 29.296C101.424 28.192 101.744 27.144 102.096 26.152C102.464 25.16 102.84 24.296 103.224 23.56C103.128 23.592 103.04 23.608 102.96 23.608C102.896 23.608 102.824 23.592 102.744 23.56C102.664 23.528 102.624 23.472 102.624 23.392C102.624 23.264 102.688 23.16 102.816 23.08C102.96 22.984 103.12 22.912 103.296 22.864C103.472 22.816 103.6 22.784 103.68 22.768C103.728 22.688 103.784 22.568 103.848 22.408C103.928 22.232 104.016 22.072 104.112 21.928C104.224 21.784 104.336 21.712 104.448 21.712C104.608 21.712 104.728 21.776 104.808 21.904C104.888 22.016 104.928 22.136 104.928 22.264C104.928 22.328 104.92 22.4 104.904 22.48C104.904 22.544 104.896 22.608 104.88 22.672H105.336C106.12 22.672 106.952 22.744 107.832 22.888C108.712 23.016 109.576 23.24 110.424 23.56C111.288 23.864 112.088 24.28 112.824 24.808C113.576 25.32 114.2 25.96 114.696 26.728C114.984 27.176 115.208 27.648 115.368 28.144C115.528 28.64 115.608 29.152 115.608 29.68C115.608 30.688 115.368 31.608 114.888 32.44C114.408 33.272 113.768 34.008 112.968 34.648C112.168 35.272 111.28 35.8 110.304 36.232C109.344 36.664 108.368 36.992 107.376 37.216C106.384 37.44 105.456 37.552 104.592 37.552C104.272 37.552 103.904 37.528 103.488 37.48C103.072 37.432 102.72 37.328 102.432 37.168C102.4 37.152 102.304 37.096 102.144 37C102 36.92 101.928 36.84 101.928 36.76C101.928 36.728 101.952 36.712 102 36.712C102.048 36.696 102.08 36.688 102.096 36.688C102.288 36.688 102.496 36.744 102.72 36.856C103.232 37 103.728 37.072 104.208 37.072C104.912 37.072 105.688 36.968 106.536 36.76C107.4 36.536 108.264 36.24 109.128 35.872C109.992 35.488 110.784 35.048 111.504 34.552C112.224 34.056 112.792 33.52 113.208 32.944C113.624 32.4 113.984 31.792 114.288 31.12C114.608 30.432 114.768 29.744 114.768 29.056C114.768 28.288 114.584 27.616 114.216 27.04C113.848 26.464 113.368 25.976 112.776 25.576C112.2 25.16 111.568 24.824 110.88 24.568C110.192 24.296 109.528 24.088 108.888 23.944C108.296 23.816 107.704 23.728 107.112 23.68C106.52 23.632 105.92 23.608 105.312 23.608C105.152 23.608 104.992 23.616 104.832 23.632C104.672 23.632 104.504 23.64 104.328 23.656C104.04 24.296 103.744 25.048 103.44 25.912C103.136 26.776 102.84 27.696 102.552 28.672C102.264 29.632 102 30.592 101.76 31.552C101.536 32.496 101.352 33.384 101.208 34.216C101.08 35.048 101.016 35.752 101.016 36.328C101.016 36.44 101.016 36.56 101.016 36.688C101.016 36.8 101.024 36.92 101.04 37.048C101.072 37.256 101.104 37.448 101.136 37.624C101.184 37.816 101.272 38 101.4 38.176C101.496 38.288 101.592 38.352 101.688 38.368C101.784 38.4 101.872 38.456 101.952 38.536C101.968 38.536 101.976 38.552 101.976 38.584C101.976 38.632 101.928 38.672 101.832 38.704C101.736 38.752 101.664 38.776 101.616 38.776Z" fill="black"/>
</svg>
