<svg width="64" height="64" viewBox="0 0 64 64" fill="none" xmlns="http://www.w3.org/2000/svg">
<circle cx="32" cy="32" r="32" fill="#110000" fill-opacity="0.5"/>
<circle cx="32" cy="32" r="32" fill="url(#paint0_linear_209_2368)" fill-opacity="0.61"/>
<circle cx="32" cy="32" r="32" fill="url(#paint1_linear_209_2368)"/>
<path d="M35.1757 26.1266L15.3767 45.9256C15.3767 45.9256 13.9625 47.3398 15.0233 48.4006C16.0842 49.4615 17.4982 48.0471 17.4982 48.0471L37.2972 28.2481C39.065 26.4803 40.6658 26.1268 42.2469 26.1268C44.3683 26.1268 44.9575 25.5375 45.4289 25.0661L46.136 24.359L50.7322 19.7628C50.7322 19.7628 52.0568 18.259 51.4393 17.6415C50.8219 17.024 49.318 18.3486 49.318 18.3486L44.7218 22.9448C44.7218 22.9448 43.3076 24.359 42.6005 23.6519C41.8934 22.9448 43.3076 21.5306 43.3076 21.5306L47.9038 16.9344C47.9038 16.9344 49.2284 15.4305 48.6109 14.8131C47.9934 14.1956 46.4896 15.5202 46.4896 15.5202L41.8934 20.1164C41.8934 20.1164 40.4792 21.5306 39.7721 20.8235C39.065 20.1164 40.4792 18.7021 40.4792 18.7021L45.0754 14.1059C45.0754 14.1059 46.3999 12.6021 45.7824 11.9846C45.1649 11.3671 43.661 12.6916 43.661 12.6916L38.3579 17.995C38.3579 17.995 37.2972 19.0557 37.297 21.1768C37.2968 23.298 36.9435 24.3588 35.1757 26.1266Z" fill="url(#paint2_linear_209_2368)"/>
<path d="M26.52 28.6806L46.3187 48.4792C46.3187 48.4792 47.7332 49.8938 48.7939 48.8331C49.8546 47.7724 48.4403 46.3582 48.4403 46.3582L28.6414 26.5592C27.2268 25.1447 26.5197 24.4376 26.5197 21.6092C26.5197 18.7807 25.8126 18.0736 24.3984 16.6594C22.9842 15.2452 21.5699 14.5381 19.8022 14.1845C18.0344 13.831 16.2666 14.1845 15.206 15.2452C14.1453 16.3059 13.7918 18.0736 14.1453 19.8414C14.4989 21.6092 15.206 23.0234 16.6202 24.4376C18.0344 25.8518 18.7422 26.5596 21.5703 26.5592C24.3984 26.5589 25.1055 27.266 26.52 28.6806Z" fill="url(#paint3_linear_209_2368)"/>
<defs>
<linearGradient id="paint0_linear_209_2368" x1="2.5" y1="47" x2="57.5" y2="19" gradientUnits="userSpaceOnUse">
<stop stop-color="#D8D78F"/>
<stop offset="1" stop-color="#E4E4E4" stop-opacity="0"/>
</linearGradient>
<linearGradient id="paint1_linear_209_2368" x1="59.5" y1="16" x2="3.5" y2="45.5" gradientUnits="userSpaceOnUse">
<stop stop-color="#AA5042" stop-opacity="0.61"/>
<stop offset="1" stop-opacity="0"/>
</linearGradient>
<linearGradient id="paint2_linear_209_2368" x1="48.6108" y1="14.813" x2="15.0232" y2="48.4005" gradientUnits="userSpaceOnUse">
<stop stop-color="#753742" stop-opacity="0.2"/>
<stop offset="1" stop-color="#753742"/>
</linearGradient>
<linearGradient id="paint3_linear_209_2368" x1="15.206" y1="15.2452" x2="48.7939" y2="48.8331" gradientUnits="userSpaceOnUse">
<stop stop-color="#D8BD8A"/>
<stop offset="1" stop-color="#D8BD8A" stop-opacity="0"/>
</linearGradient>
</defs>
</svg>
